HIERARCHY
ROOT Hips
{
	OFFSET 55.310501 45.591206 43.872097
	CHANNELS 6 Xposition Yposition Zposition Zrotation Xrotation Yrotation
	JOINT Chest
	{
		OFFSET -0.153500 1.163101 7.852402
		CHANNELS 6 Xposition Yposition Zposition Zrotation Xrotation Yrotation
		JOINT Chest2
		{
			OFFSET 0.000000 0.000000 3.343300
			CHANNELS 6 Xposition Yposition Zposition Zrotation Xrotation Yrotation
			JOINT Neck
			{
				OFFSET 0.000000 0.000000 7.785500
				CHANNELS 6 Xposition Yposition Zposition Zrotation Xrotation Yrotation
				JOINT Head
				{
					OFFSET 0.000000 0.000000 2.173901
					CHANNELS 6 Xposition Yposition Zposition Zrotation Xrotation Yrotation
					End Site
					{
						OFFSET 0.000000 0.000000 10.528198
					}
				}
			}
			JOINT LeftCollar
			{
				OFFSET 2.676300 -1.652401 4.938301
				CHANNELS 6 Xposition Yposition Zposition Zrotation Xrotation Yrotation
				JOINT LeftShoulder
				{
					OFFSET 4.299000 0.000000 0.000000
					CHANNELS 6 Xposition Yposition Zposition Zrotation Xrotation Yrotation
					JOINT LeftElbow
					{
						OFFSET 0.000000 0.000000 -10.245102
						CHANNELS 6 Xposition Yposition Zposition Zrotation Xrotation Yrotation
						JOINT LeftWrist
						{
							OFFSET 0.000000 0.000000 -12.703300
							CHANNELS 6 Xposition Yposition Zposition Zrotation Xrotation Yrotation
							End Site
							{
								OFFSET 0.000000 0.000000 -2.173901
							}
						}
					}
				}
			}
			JOINT RightCollar
			{
				OFFSET -2.534599 -1.686401 5.195000
				CHANNELS 6 Xposition Yposition Zposition Zrotation Xrotation Yrotation
				JOINT RightShoulder
				{
					OFFSET -4.144100 0.000000 0.000000
					CHANNELS 6 Xposition Yposition Zposition Zrotation Xrotation Yrotation
					JOINT RightElbow
					{
						OFFSET 0.000000 0.000000 -10.116501
						CHANNELS 6 Xposition Yposition Zposition Zrotation Xrotation Yrotation
						JOINT RightWrist
						{
							OFFSET 0.000000 0.000000 -12.937801
							CHANNELS 6 Xposition Yposition Zposition Zrotation Xrotation Yrotation
							End Site
							{
								OFFSET 0.000000 0.000000 -2.173901
							}
						}
					}
				}
			}
		}
	}
	JOINT LeftHip
	{
		OFFSET 2.175598 0.064499 -2.662899
		CHANNELS 6 Xposition Yposition Zposition Zrotation Xrotation Yrotation
		JOINT LeftKnee
		{
			OFFSET 0.000000 -0.000004 -18.585800
			CHANNELS 6 Xposition Yposition Zposition Zrotation Xrotation Yrotation
			JOINT LeftAnkle
			{
				OFFSET 0.000000 0.000000 -18.979500
				CHANNELS 6 Xposition Yposition Zposition Zrotation Xrotation Yrotation
				End Site
				{
					OFFSET 0.000000 -9.264000 0.000000
				}
			}
		}
	}
	JOINT RightHip
	{
		OFFSET -2.092400 -0.058102 -2.581200
		CHANNELS 6 Xposition Yposition Zposition Zrotation Xrotation Yrotation
		JOINT RightKnee
		{
			OFFSET 0.000000 -0.000004 -18.665001
			CHANNELS 6 Xposition Yposition Zposition Zrotation Xrotation Yrotation
			JOINT RightAnkle
			{
				OFFSET 0.000000 0.000000 -18.566601
				CHANNELS 6 Xposition Yposition Zposition Zrotation Xrotation Yrotation
				End Site
				{
					OFFSET 0.000000 -8.497601 0.000000
				}
			}
		}
	}
}
MOTION
Frames: 9
Frame Time: 0.041667
66.988808 50.784000 39.203396 371.304438 -5.323769 -18.976955 -0.153500 1.163104 7.852402 20.881582 14.011891 0.978584 0.000014 0.000005 3.343300 -6.775090 -2.760568 -0.161162 0.000000 -0.000008 7.785496 -47.219253 1.137709 26.529449 -0.000005 0.000004 2.173900 -1.940924 4.505227 -4.754241 2.676292 -1.652405 4.938295 -4.646248 4.751498 7.413465 4.298992 0.000006 0.000004 -38.771207 11.934956 -63.530854 -0.000009 0.000004 -10.245107 187.136979 248.009250 208.476566 -0.000009 -0.000010 -12.703299 53.734348 3.368046 30.993476 -2.534602 -1.686406 5.194995 17.833153 8.998560 -0.284559 -4.144100 0.000000 -0.000004 55.167602 -24.461079 56.900482 0.000008 -0.000001 -10.116501 -60.373374 -21.923376 -67.243766 0.000005 0.000003 -12.937791 127.699962 190.760558 86.082548 2.175594 0.064495 -2.662898 -337.511612 -12.679228 22.292868 0.000007 -0.000014 -18.585796 133.557533 -236.449346 -140.337711 -0.000003 0.000003 -18.979498 370.834575 -7.470072 -7.308168 -2.092398 -0.058097 -2.581195 -174.560251 -10.728158 -68.794936 0.000003 -0.000005 -18.665014 -349.762185 4.519765 18.687717 0.000003 0.000000 -18.566608 517.491796 61.900010 -59.083138
66.934807 50.764904 39.234192 371.272636 -5.473409 -19.026137 -0.153502 1.163102 7.852393 21.020759 14.310048 0.941521 0.000022 -0.000005 3.343310 -6.793811 -2.818786 -0.161561 -0.000004 0.000006 7.785506 -47.275817 1.118326 26.517682 0.000002 -0.000004 2.173900 -1.927731 4.513488 -4.887331 2.676292 -1.652386 4.938308 -4.663136 4.730701 7.453389 4.298994 0.000006 -0.000002 -38.692602 11.961120 -63.656728 -0.000008 0.000011 -10.245107 187.862618 247.863194 209.241520 -0.000004 -0.000002 -12.703294 53.363674 3.267772 31.097885 -2.534602 -1.686395 5.194999 17.692837 8.857067 -0.311562 -4.144104 -0.000001 0.000004 55.307129 -24.248809 56.897709 0.000006 0.000006 -10.116505 -60.256380 -22.094958 -67.084363 0.000001 -0.000003 -12.937798 127.433080 190.748428 86.185157 2.175595 0.064496 -2.662903 -337.764712 -12.539724 22.099994 -0.000001 0.000000 -18.585793 134.013161 -236.399732 -140.570880 -0.000008 -0.000007 -18.979500 370.673574 -7.394204 -7.274834 -2.092403 -0.058095 -2.581201 -174.595672 -10.743456 -68.786842 -0.000001 -0.000010 -18.665018 -350.625002 3.915794 18.749160 0.000008 0.000006 -18.566608 518.705220 61.328494 -59.791114
66.876602 50.742599 39.268997 371.219115 -5.577827 -19.032944 -0.153491 1.163108 7.852407 21.080788 14.527898 0.908767 0.000002 -0.000005 3.343306 -6.763793 -2.890693 -0.160759 0.000002 0.000002 7.785508 -47.268683 1.121284 26.523161 0.000002 -0.000008 2.173907 -1.855924 4.512967 -5.045541 2.676295 -1.652402 4.938305 -4.613796 4.636890 7.493210 4.298992 0.000006 -0.000009 -38.553556 12.013378 -63.695530 -0.000009 -0.000002 -10.245110 188.050285 247.828005 209.556132 0.000002 0.000000 -12.703295 53.216309 3.250956 31.200690 -2.534597 -1.686399 5.195003 17.633858 8.779351 -0.354518 -4.144098 -0.000001 -0.000010 55.456300 -24.030661 56.920911 -0.000006 0.000018 -10.116497 -60.212721 -22.213010 -66.931332 0.000007 0.000003 -12.937796 127.283772 190.630839 86.389196 2.175610 0.064496 -2.662897 -338.074092 -12.481813 21.875154 -0.000004 -0.000009 -18.585804 134.678667 -236.369570 -140.921761 -0.000005 -0.000007 -18.979504 370.498912 -7.277484 -7.341985 -2.092392 -0.058098 -2.581199 -174.588815 -10.714943 -68.737992 0.000004 -0.000016 -18.665012 -351.238407 3.435976 18.830102 0.000005 0.000005 -18.566607 519.566152 60.871595 -60.230896
66.812904 50.718807 39.306793 371.188352 -5.641211 -18.983708 -0.153514 1.163104 7.852400 21.186465 14.652038 0.831552 -0.000001 0.000006 3.343307 -6.776869 -2.938854 -0.161716 0.000013 0.000000 7.785507 -47.235792 1.121471 26.512361 0.000002 0.000002 2.173905 -1.813855 4.498092 -5.180404 2.676298 -1.652400 4.938309 -4.573275 4.556678 7.479683 4.298989 0.000006 0.000008 -38.365459 11.966818 -63.681945 -0.000013 0.000011 -10.245114 187.549604 247.920130 209.275917 -0.000008 0.000006 -12.703295 53.334854 3.236403 31.308255 -2.534586 -1.686401 5.195002 17.573544 8.667351 -0.333920 -4.144102 -0.000007 -0.000004 55.568677 -23.835760 56.826969 0.000010 0.000014 -10.116505 -60.131025 -22.500195 -66.757531 0.000001 -0.000001 -12.937799 126.985511 190.535763 86.518771 2.175588 0.064499 -2.662901 -338.443769 -12.453607 21.611837 0.000006 0.000002 -18.585798 135.475122 -236.303782 -141.400092 0.000003 0.000000 -18.979496 370.322530 -7.145832 -7.426012 -2.092408 -0.058099 -2.581193 -174.560798 -10.667353 -68.618826 0.000010 -0.000009 -18.665010 -351.556667 3.119902 18.919887 0.000013 -0.000005 -18.566610 519.949079 60.568471 -60.321990
66.747208 50.696499 39.343597 371.199389 -5.679410 -18.932875 -0.153491 1.163101 7.852408 21.256633 14.703784 0.776407 0.000001 0.000002 3.343300 -6.786765 -2.976599 -0.162193 0.000004 0.000000 7.785499 -47.170956 1.145578 26.504170 0.000002 -0.000009 2.173913 -1.806710 4.311943 -5.279799 2.676293 -1.652386 4.938301 -4.550240 4.515001 7.435763 4.299005 0.000002 0.000001 -38.124900 11.846539 -63.646674 -0.000007 0.000002 -10.245108 186.449917 248.106676 208.479134 0.000001 -0.000002 -12.703289 53.641058 3.154913 31.420168 -2.534595 -1.686399 5.194995 17.588289 8.624201 -0.331931 -4.144100 0.000004 0.000004 55.620686 -23.686010 56.730896 0.000013 0.000007 -10.116501 -60.055415 -22.809043 -66.590192 0.000003 0.000003 -12.937803 126.674970 190.475548 86.599982 2.175604 0.064503 -2.662895 -338.767657 -12.441732 21.398011 -0.000005 -0.000017 -18.585802 136.269692 -236.262281 -141.959717 -0.000009 -0.000005 -18.979502 370.134126 -7.002438 -7.543056 -2.092401 -0.058092 -2.581191 -174.503711 -10.672415 -68.485344 0.000001 -0.000014 -18.665007 -351.603932 2.962602 19.038263 0.000001 0.000009 -18.566605 519.779363 60.417504 -60.043080
66.681000 50.676598 39.379696 371.241955 -5.702323 -18.929769 -0.153503 1.163104 7.852407 21.258697 14.731349 0.797466 0.000009 0.000008 3.343297 -6.756310 -3.011101 -0.160768 -0.000002 -0.000006 7.785501 -47.089903 1.176777 26.499862 0.000003 0.000001 2.173908 -1.807916 4.298452 -5.289214 2.676294 -1.652399 4.938299 -4.557232 4.519375 7.431583 4.298998 0.000011 -0.000010 -37.871777 11.785066 -63.669439 -0.000015 0.000010 -10.245114 185.087526 248.330980 207.388258 -0.000013 0.000001 -12.703287 54.040952 2.997192 31.522733 -2.534606 -1.686399 5.194997 17.716964 8.729904 -0.393525 -4.144108 -0.000005 0.000004 55.658009 -23.550904 56.788153 0.000006 0.000017 -10.116503 -60.063440 -23.086950 -66.421438 0.000007 0.000002 -12.937798 126.409808 190.423092 86.644740 2.175596 0.064498 -2.662893 -338.973764 -12.416545 21.274265 -0.000006 -0.000005 -18.585804 136.868945 -236.227447 -142.461067 -0.000009 -0.000004 -18.979502 369.981812 -6.880212 -7.664743 -2.092403 -0.058106 -2.581194 -174.428975 -10.710985 -68.406496 0.000000 -0.000008 -18.665005 -351.533253 2.860914 19.207837 0.000010 -0.000000 -18.566608 519.301086 60.308549 -59.556108
66.611610 50.657707 39.416691 371.335064 -5.724392 -18.933587 -0.153499 1.163098 7.852407 21.262297 14.717434 0.795913 0.000012 0.000001 3.343305 -6.753003 -3.031931 -0.159944 -0.000004 -0.000002 7.785502 -46.991357 1.175410 26.537650 -0.000005 0.000016 2.173915 -1.807840 4.293855 -5.240584 2.676298 -1.652397 4.938302 -4.558114 4.541390 7.428873 4.299000 0.000008 0.000006 -37.724747 11.848312 -63.643136 -0.000000 0.000002 -10.245112 183.844432 248.520586 206.271426 -0.000006 -0.000001 -12.703289 54.382359 2.715101 31.551912 -2.534600 -1.686399 5.195001 17.872148 8.871699 -0.378366 -4.144108 -0.000006 -0.000006 55.628059 -23.547521 56.840015 0.000015 0.000004 -10.116499 -60.023470 -23.180496 -66.290285 0.000008 0.000001 -12.937783 126.252864 190.485875 86.590481 2.175598 0.064502 -2.662896 -339.116816 -12.389390 21.190366 -0.000003 -0.000005 -18.585802 137.421152 -236.230398 -143.005597 0.000002 -0.000002 -18.979500 369.781196 -6.759511 -7.778577 -2.092389 -0.058100 -2.581195 -174.321126 -10.839981 -68.322799 0.000005 -0.000008 -18.665007 -351.239445 2.888060 19.423552 0.000005 0.000008 -18.566608 518.269126 60.315686 -58.666189
66.535400 50.641399 39.455799 371.460221 -5.762505 -18.955447 -0.153503 1.163092 7.852396 21.343359 14.743351 0.782221 0.000011 -0.000001 3.343299 -6.803315 -3.046627 -0.160652 -0.000015 -0.000002 7.785500 -46.932036 1.133642 26.571939 -0.000000 0.000006 2.173912 -1.805088 4.290812 -5.183904 2.676285 -1.652410 4.938303 -4.567671 4.600543 7.415900 4.298999 0.000008 0.000001 -37.638246 11.894749 -63.656120 -0.000014 0.000002 -10.245117 182.465526 248.716148 205.001380 -0.000011 -0.000001 -12.703298 54.734404 2.338120 31.559535 -2.534608 -1.686408 5.194997 17.955515 8.944888 -0.340746 -4.144102 0.000003 -0.000002 55.598471 -23.562467 56.846910 0.000011 0.000011 -10.116503 -59.960216 -23.218837 -66.178707 0.000000 0.000001 -12.937788 126.108132 190.640074 86.451173 2.175585 0.064495 -2.662901 -339.140776 -12.331192 21.137863 -0.000003 -0.000004 -18.585800 137.768522 -236.245342 -143.441595 -0.000011 -0.000002 -18.979504 369.563996 -6.668067 -7.909331 -2.092400 -0.058110 -2.581203 -174.199358 -11.021879 -68.230742 -0.000002 -0.000003 -18.665001 -351.031261 2.849907 19.654178 0.000000 0.000001 -18.566605 517.190885 60.229557 -57.702872
66.452011 50.628605 39.497700 371.634336 -5.843220 -19.032841 -0.153497 1.163102 7.852403 21.285122 14.856590 0.857026 0.000000 -0.000010 3.343300 -6.774279 -3.093713 -0.158460 -0.000013 0.000000 7.785494 -46.874325 1.105195 26.586680 0.000004 0.000006 2.173907 -1.754089 4.316107 -5.125220 2.676290 -1.652394 4.938297 -4.569449 4.656234 7.436043 4.298999 0.000004 -0.000013 -37.564282 11.992341 -63.738909 -0.000009 -0.000004 -10.245105 181.310322 248.844719 203.918549 -0.000010 -0.000014 -12.703300 54.983959 2.010938 31.619780 -2.534608 -1.686394 5.194993 18.054254 9.083070 -0.429945 -4.144110 -0.000005 -0.000010 55.638861 -23.530456 57.040870 0.000006 0.000009 -10.116499 -59.974026 -23.087014 -66.104046 0.000008 -0.000001 -12.937799 126.077028 190.774055 86.364969 2.175595 0.064505 -2.662896 -339.061382 -12.213861 21.137369 -0.000004 -0.000006 -18.585808 138.006335 -236.303700 -143.898958 -0.000023 -0.000007 -18.979502 369.288494 -6.561003 -8.057903 -2.092400 -0.058102 -2.581194 -174.075827 -11.277880 -68.197540 0.000005 -0.000004 -18.665005 -350.810482 2.763452 19.968835 -0.000007 -0.000000 -18.566607 515.912602 60.044630 -56.576421
